HIERARCHY
ROOT hips
{
  OFFSET 0 10.6860622 2.3727825e-15
  CHANNELS 6 Xposition Yposition Zposition Yrotation Xrotation Zrotation
  JOINT leftUpperLeg
  {
    OFFSET 0.6642549969 -0.9402397400000004 0
    CHANNELS 3 Yrotation Xrotation Zrotation
    JOINT leftLowerLeg
    {
      OFFSET 0 -3.997221335632195 0
      CHANNELS 3 Yrotation Xrotation Zrotation
      JOINT leftFoot
      {
        OFFSET -0.13777839790000004 -4.6145792000000005 -0.22186036399999998
        CHANNELS 3 Yrotation Xrotation Zrotation
        JOINT leftToes
        {
          OFFSET -0.03777410834999995 -0.9130806927000008 0.85230013
          CHANNELS 3 Yrotation Xrotation Zrotation
          End Site
          {
            OFFSET -0.03777410834999995 -0.9130806927000008 0.85230013
          }
        }
      }
    }
  }
  JOINT rightUpperLeg
  {
    OFFSET -0.6642778626 -0.9402397400000004 0
    CHANNELS 3 Yrotation Xrotation Zrotation
    JOINT rightLowerLeg
    {
      OFFSET 0 -3.997221452859387 0
      CHANNELS 3 Yrotation Xrotation Zrotation
      JOINT rightFoot
      {
        OFFSET 0.1377926176 -4.6145792000000005 -0.22185782299999995
        CHANNELS 3 Yrotation Xrotation Zrotation
        JOINT rightToes
        {
          OFFSET 0.037780746850000047 -0.9130806927000008 0.85230167
          CHANNELS 3 Yrotation Xrotation Zrotation
          End Site
          {
            OFFSET 0.037780746850000047 -0.9130806927000008 0.85230167
          }
        }
      }
    }
  }
  JOINT spine
  {
    OFFSET 0 0.13988381660000015 0
    CHANNELS 3 Yrotation Xrotation Zrotation
    JOINT chest
    {
      OFFSET 0 0.6191039003973773 0
      CHANNELS 3 Yrotation Xrotation Zrotation
      JOINT upperChest
      {
        OFFSET 0 0.9855186130586943 0
        CHANNELS 3 Yrotation Xrotation Zrotation
        JOINT leftShoulder
        {
          OFFSET 0.1807663869 1.5087829790000005 0
          CHANNELS 3 Yrotation Xrotation Zrotation
          JOINT leftUpperArm
          {
            OFFSET 0.5985063006419806 0 0
            CHANNELS 3 Yrotation Xrotation Zrotation
            JOINT leftLowerArm
            {
              OFFSET 2.2993332369501065 0 0
              CHANNELS 3 Yrotation Xrotation Zrotation
              JOINT leftHand
              {
                OFFSET 2.395047042602395 0 0
                CHANNELS 3 Yrotation Xrotation Zrotation
                JOINT leftIndexProximal
                {
                  OFFSET 0.5766295810000004 0.04556643899499946 0.17265095988184
                  CHANNELS 3 Yrotation Xrotation Zrotation
                  JOINT leftIndexIntermediate
                  {
                    OFFSET 0.2957229000000008 -0.019352197700001517 -0.007932640616999987
                    CHANNELS 3 Yrotation Xrotation Zrotation
                    JOINT leftIndexDistal
                    {
                      OFFSET 0.19008243099999922 -0.012484908149998475 -0.002786250786000012
                      CHANNELS 3 Yrotation Xrotation Zrotation
                      End Site
                      {
                        OFFSET 0.19008243099999922 -0.012484908149998475 -0.002786250786000012
                      }
                    }
                  }
                }
                JOINT leftMiddleProximal
                {
                  OFFSET 0.5834975091000001 0.0524350405149987 0.02204081888183999
                  CHANNELS 3 Yrotation Xrotation Zrotation
                  JOINT leftMiddleIntermediate
                  {
                    OFFSET 0.33880573540000003 -0.019871473270000717 -0.00000971183179999946
                    CHANNELS 3 Yrotation Xrotation Zrotation
                    JOINT leftMiddleDistal
                    {
                      OFFSET 0.20676022730000088 -0.012221336379999448 0.0001471936708000235
                      CHANNELS 3 Yrotation Xrotation Zrotation
                      End Site
                      {
                        OFFSET 0.20676022730000088 -0.012221336379999448 0.0001471936708000235
                      }
                    }
                  }
                }
                JOINT leftLittleProximal
                {
                  OFFSET 0.5344154683999995 -0.012880921405001189 -0.24414037221816004
                  CHANNELS 3 Yrotation Xrotation Zrotation
                  JOINT leftLittleIntermediate
                  {
                    OFFSET 0.21758961730000093 -0.011650919939999227 0.011893592810000034
                    CHANNELS 3 Yrotation Xrotation Zrotation
                    JOINT leftLittleDistal
                    {
                      OFFSET 0.1475273964999999 -0.008152365682999818 0.006001092492999946
                      CHANNELS 3 Yrotation Xrotation Zrotation
                      End Site
                      {
                        OFFSET 0.1475273964999999 -0.008152365682999818 0.006001092492999946
                      }
                    }
                  }
                }
                JOINT leftRingProximal
                {
                  OFFSET 0.5799399463000003 0.026911854694997794 -0.12150566991816003
                  CHANNELS 3 Yrotation Xrotation Zrotation
                  JOINT leftRingIntermediate
                  {
                    OFFSET 0.26167887460000006 -0.013480186499999602 0.010996293000000053
                    CHANNELS 3 Yrotation Xrotation Zrotation
                    JOINT leftRingDistal
                    {
                      OFFSET 0.17667108799999987 -0.008990287899999228 0.0055541023999999065
                      CHANNELS 3 Yrotation Xrotation Zrotation
                      End Site
                      {
                        OFFSET 0.17667108799999987 -0.008990287899999228 0.0055541023999999065
                      }
                    }
                  }
                }
                JOINT leftThumbProximal
                {
                  OFFSET 0.11018806699999972 -0.09448718900500053 0.17047963138184
                  CHANNELS 3 Yrotation Xrotation Zrotation
                  JOINT leftThumbIntermediate
                  {
                    OFFSET 0.31062601459999983 -0.08126270900000132 0.15443142000000007
                    CHANNELS 3 Yrotation Xrotation Zrotation
                    JOINT leftThumbDistal
                    {
                      OFFSET 0.21627175790000086 -0.08833193599999878 0.018771167799999988
                      CHANNELS 3 Yrotation Xrotation Zrotation
                      End Site
                      {
                        OFFSET 0.21627175790000086 -0.08833193599999878 0.018771167799999988
                      }
                    }
                  }
                }
              }
            }
          }
        }
        JOINT neck
        {
          OFFSET 0 1.5463305265074576 0
          CHANNELS 3 Yrotation Xrotation Zrotation
          JOINT head
          {
            OFFSET 0 0.8456443600000344 0
            CHANNELS 3 Yrotation Xrotation Zrotation
            JOINT leftEye
            {
              OFFSET 0.30408573140000006 0.5104519199999995 0.1276382305
              CHANNELS 3 Yrotation Xrotation Zrotation
              End Site
              {
                OFFSET 0.30408573140000006 0.5104519199999995 0.1276382305
              }
            }
            JOINT rightEye
            {
              OFFSET -0.30409491089999996 0.5104519199999995 0.1276379445
              CHANNELS 3 Yrotation Xrotation Zrotation
              End Site
              {
                OFFSET -0.30409491089999996 0.5104519199999995 0.1276379445
              }
            }
            JOINT jaw
            {
              OFFSET -3.155239131000001e-7 -0.11984121820000082 0.60178107
              CHANNELS 3 Yrotation Xrotation Zrotation
              End Site
              {
                OFFSET -3.155239131000001e-7 -0.11984121820000082 0.60178107
              }
            }
          }
        }
        JOINT rightShoulder
        {
          OFFSET -0.1807303465 1.5087829790000005 0
          CHANNELS 3 Yrotation Xrotation Zrotation
          JOINT rightUpperArm
          {
            OFFSET -0.5985063796536958 0 0
            CHANNELS 3 Yrotation Xrotation Zrotation
            JOINT rightLowerArm
            {
              OFFSET -2.2993322059002854 0 0
              CHANNELS 3 Yrotation Xrotation Zrotation
              JOINT rightHand
              {
                OFFSET -2.395045314457259 0 0
                CHANNELS 3 Yrotation Xrotation Zrotation
                JOINT rightIndexProximal
                {
                  OFFSET -0.5764487688300002 0.0441371204405987 0.17361932004999997
                  CHANNELS 3 Yrotation Xrotation Zrotation
                  JOINT rightIndexIntermediate
                  {
                    OFFSET -0.29573011380000047 -0.01934826376999843 -0.007698921482999974
                    CHANNELS 3 Yrotation Xrotation Zrotation
                    JOINT rightIndexDistal
                    {
                      OFFSET -0.19008373999999884 -0.012503266380000655 -0.0026365778999999897
                      CHANNELS 3 Yrotation Xrotation Zrotation
                      End Site
                      {
                        OFFSET -0.19008373999999884 -0.012503266380000655 -0.0026365778999999897
                      }
                    }
                  }
                }
                JOINT rightMiddleProximal
                {
                  OFFSET -0.5834852037300005 0.05211639405060153 0.02307162440000001
                  CHANNELS 3 Yrotation Xrotation Zrotation
                  JOINT rightMiddleIntermediate
                  {
                    OFFSET -0.33880114510000003 -0.019952774050000954 0.0002455003561999819
                    CHANNELS 3 Yrotation Xrotation Zrotation
                    JOINT rightMiddleDistal
                    {
                      OFFSET -0.20675694929999955 -0.012273788999999091 0.00030209124000002766
                      CHANNELS 3 Yrotation Xrotation Zrotation
                      End Site
                      {
                        OFFSET -0.20675694929999955 -0.012273788999999091 0.00030209124000002766
                      }
                    }
                  }
                }
                JOINT rightLittleProximal
                {
                  OFFSET -0.5346811737299992 -0.011214256288399227 -0.24363941305000003
                  CHANNELS 3 Yrotation Xrotation Zrotation
                  JOINT rightLittleIntermediate
                  {
                    OFFSET -0.21757715980000092 -0.011771559690000988 0.01201554387
                    CHANNELS 3 Yrotation Xrotation Zrotation
                    JOINT rightLittleDistal
                    {
                      OFFSET -0.1475201849000004 -0.00822055339600003 0.006082065407000015
                      CHANNELS 3 Yrotation Xrotation Zrotation
                      End Site
                      {
                        OFFSET -0.1475201849000004 -0.00822055339600003 0.006082065407000015
                      }
                    }
                  }
                }
                JOINT rightRingProximal
                {
                  OFFSET -0.5800810755299999 0.027657985680600072 -0.12066365025000003
                  CHANNELS 3 Yrotation Xrotation Zrotation
                  JOINT rightRingIntermediate
                  {
                    OFFSET -0.26166445029999974 -0.013623118409999302 0.011164098990000045
                    CHANNELS 3 Yrotation Xrotation Zrotation
                    JOINT rightRingDistal
                    {
                      OFFSET -0.17666387530000027 -0.009072900100000503 0.005668185599999959
                      CHANNELS 3 Yrotation Xrotation Zrotation
                      End Site
                      {
                        OFFSET -0.17666387530000027 -0.009072900100000503 0.005668185599999959
                      }
                    }
                  }
                }
                JOINT rightThumbProximal
                {
                  OFFSET -0.10997596379000074 -0.09577489355940072 0.16989765924999997
                  CHANNELS 3 Yrotation Xrotation Zrotation
                  JOINT rightThumbIntermediate
                  {
                    OFFSET -0.31036620999999986 -0.08229339117999834 0.15440884469999996
                    CHANNELS 3 Yrotation Xrotation Zrotation
                    JOINT rightThumbDistal
                    {
                      OFFSET -0.21631306399999906 -0.08825326400000111 0.018656797720000014
                      CHANNELS 3 Yrotation Xrotation Zrotation
                      End Site
                      {
                        OFFSET -0.21631306399999906 -0.08825326400000111 0.018656797720000014
                      }
                    }
                  }
                }
              }
            }
          }
        }
      }
    }
  }
}
MOTION
Frames: 8
Frame Time: 0.03333333333333333
0 11.682712981546562 0 0 0 0 0 0 -5.826343164929014 -0.3712483961610101 -3.6333298826370974 5.838118207697276 0 0 0 0 0 0 0 0 5.826343164929014 0.3712483961610101 -3.6333298826370974 -5.838118207697276 0 0 0 0 0 0 0 -4.610651315171937 0 0 3.0831277533083026 0 0 0 0 0 1.5275236235667615 0 0 0 0 0 0 0 0 0 0 0 0 0 0 0 0 0 0 0 0 0 0 0 0 0 0 0 0 0 0 0 0 0 0 0 0 0 0 0 0 0 0 0 0 0 0 0 0 0 0 0 0 0 0 0 0 1.5275236235667615 0 0 0 0 0 0 0 0 0 0 0 0 0 0 1.5275236235667615 0 0 0 0 0 0 0 0 0 0 0 0 0 0 0 0 0 0 0 0 0 0 0 0 0 0 0 0 0 0 0 0 0 0 0 0 0 0 0 0 0 0 0 0 0 0 0 0 0 0 0 0 0 0 0
0.1346301259557403 -7.754650111470608 1.0810913154122024 -90.00187700009965 0 0 -179.44583840878693 -61.61212181427307 -159.1592010380574 168.59068981429195 66.8700840719712 172.5849829823503 0 -0.20807499339466143 0 0 0 0 179.46440985621498 -61.61593624763072 159.12251175388815 -168.5646626769482 66.87877076882613 -172.59733938269187 0.0296971891161045 -0.20458196931514494 0.015683962472938583 0 0 0 -0.787240358207651 11.73487338074324 -1.4243974857860027 -0.42082116714269946 2.1952909550616004 -0.3542731645707604 0 0 0 -6.684657762854743 1.074268456373277 -23.816780744640724 -15.347892988690678 2.0034777682730742 -7.6282109359576475 -14.166930999692886 -15.655317279368225 -37.947681958204 -0.01063871300147122 -0.016860318874456073 33.993451585625714 0 0 0 0 0 0 0 0 0 0 0 0 0 0 0 0 0 0 0 0 0 0 0 0 0 0 0 0 0 0 0 0 0 0 0 0 0 0 0 0 0 0 0 0 0 -0.22209787158773125 1.613328949297983 0.06560352825928363 -0.4420599365891441 0.23316662657734252 0.1582177617396906 0 0 0 0 0 0 0 0 0 2.9467783060010944 0.6972645321006862 12.727839167125348 20.721265198374724 17.05539922566556 54.68264138076485 33.52931376494539 -12.247333982546218 -33.41815422020773 -19.35683998613268 4.348187820055552 -20.26045306970001 0 0 0 0 0 0 0 0 0 0 0 0 0 0 0 0 0 0 0 0 0 0 0 0 0 0 0 0 0 0 0 0 0 0 0 0 0 0 0 0 0 0 0 0 0
0.1346301259557403 -7.7038609000100005 1.0810913154122024 -90.00280799913232 0.44393101265384177 -0.000010756650887446053 -179.44583840878693 -61.61212181427307 -159.1592010380574 168.4543585082091 67.24832305241777 172.4312764979771 0.0500031794095869 -0.39356283705030687 -0.16172646471728733 0 0 0 179.46440985621498 -61.61593624763072 159.12251175388815 -168.4274058279006 67.25623649535645 -172.44280926772302 -0.022174514711283243 -0.3906849654956747 0.17824220406656516 0 0 0 -0.786235189190746 11.401649967521518 -1.4196875944059544 -0.42187263398910707 4.484781015653096 -0.3711204538129024 0 0 0 -7.146491429504237 0.3126230981257178 -23.273098169793084 -15.347892988690678 2.0034777682730742 -7.6282109359576475 -14.166930999692886 -15.655317279368225 -37.947681958204 -1.2680886762215784 -0.8958576464322869 34.661073772788264 0 0 0 0 0 0 0 0 0 0 0 0 0 0 0 0 0 0 0 0 0 0 0 0 0 0 0 0 0 0 0 0 0 0 0 0 0 0 0 0 0 0 0 0 0 -0.4454143367031619 1.7107836135130463 0.12024719259331738 -0.893773425082119 0.5022755996108835 0.24845850414432422 0 0 0 0 0 0 0 0 0 3.9112474824679944 -0.07133376039801603 13.092684073856226 20.45081077174238 17.323083273334568 53.87771104924943 33.20493196227969 -12.45609352371255 -33.38469647896692 -18.686791427959804 2.6592657641446427 -20.556558595994666 0 0 0 0 0 0 0 0 0 0 0 0 0 0 0 0 0 0 0 0 0 0 0 0 0 0 0 0 0 0 0 0 0 0 0 0 0 0 0 0 0 0 0 0 0
0.1346301259557403 -7.653071420157124 1.0810913154122024 -90.00373799940809 0.8879679821021904 -0.00002893255126264158 -179.44583840878693 -61.61212181427307 -159.1592010380574 168.31315008770946 67.62648359694596 172.2727136004178 0.10053512795510623 -0.578923131022917 -0.3236307888594901 0 0 0 179.4644082728013 -61.61592187976837 159.12250728985973 -168.28525340024837 67.63361734423563 -172.28340151486674 -0.07457977936335095 -0.5766544857316185 0.340985611577726 0 0 0 -0.7852598685647922 11.068376726778485 -1.4149880393688805 -0.42362034783803443 6.789439088351298 -0.3881893595630415 0 0 0 -7.616172871563664 -0.44559538780100516 -22.722542666009115 -15.347892988690678 2.0034777682730742 -7.6282109359576475 -14.166930139992523 -15.655319052701795 -37.947686936001865 -2.5405474633341996 -1.7628922297909828 35.35047598604207 0 0 0 0 0 0 0 0 0 0 0 0 0 0 0 0 0 0 0 0 0 0 0 0 0 0 0 0 0 0 0 0 0 0 0 0 0 0 0 0 0 0 0 0 0 -0.668719205585495 1.808480589451456 0.1745314541416602 -1.3457385542614175 0.7724791108762631 0.33670541406169296 0 0 0 0 0 0 0 0 0 4.872854339211354 -0.8475304380842497 13.445284321064841 20.17582249779316 17.587315641528942 53.06964964858694 32.88009239634205 -12.664699192261414 -33.34997997967999 -18.00573785984616 0.9667718529436046 -20.873502632102152 0 0 0 0 0 0 0 0 0 0 0 0 0 0 0 0 0 0 0 0 0 0 0 0 0 0 0 0 0 0 0 0 0 0 0 0 0 0 0 0 0 0 0 0 0
0.1346301259557403 -7.602281940304247 1.0810913154122024 -90.00466900655228 1.332098033756605 -0.00005455686024827774 -179.44583840878693 -61.61212181427307 -159.1592010380574 168.16682330382136 68.00456051596362 172.10905112244103 0.15159548876466242 -0.7641523082648385 -0.4857167692612038 0 0 0 179.46440642077545 -61.61592187976837 159.12250896792602 -168.13796445580482 68.01088946714121 -172.11887909577072 -0.1275182876131386 -0.7624861278551339 0.5039169344354828 0 0 0 -0.7843131428898519 10.735065167565196 -1.4103002203663024 -0.42608913065574033 9.107537093766226 -0.4055264433433817 0 0 0 -8.093775362484683 -1.2001246716527432 -22.165026103916887 -15.347892988690678 2.0034777682730742 -7.6282109359576475 -14.166929280292152 -15.655317279368225 -37.94768911699559 -3.828001055999266 -2.616902294799603 36.06156156623522 0 0 0 0 0 0 0 0 0 0 0 0 0 0 0 0 0 0 0 0 0 0 0 0 0 0 0 0 0 0 0 0 0 0 0 0 0 0 0 0 0 0 0 0 0 -0.8920117291691882 1.9064180636574632 0.22845318788979557 -1.797955686823623 1.0437507605635135 0.4229441879232582 0 0 0 0 0 0 0 0 0 5.831649657465486 -1.6309203209755054 13.785501271183003 19.89632974805452 17.84800260259207 52.25847551091362 32.55481888157801 -12.87314287249201 -33.314029512791386 -17.312777492678936 -0.7281174430211753 -21.211817960185005 0 0 0 0 0 0 0 0 0 0 0 0 0 0 0 0 0 0 0 0 0 0 0 0 0 0 0 0 0 0 0 0 0 0 0 0 0 0 0 0 0 0 0 0 0
0.1346301259557403 -7.551492728843643 1.0810913154122024 -90.0055999943015 1.7763089578400992 -0.00008662748630553002 -179.44583655699404 -61.61212181427307 -159.15920439459723 168.01512093680543 68.38249236238823 171.94003313323628 0.2031858847843871 -0.9492460191409374 -0.6479841121048426 0 0 0 179.46440800418821 -61.61593624763072 159.12251343195535 -167.98526222720778 68.38807350085409 -171.94896041225414 -0.1809907860207901 -0.9481782288203442 0.6670370726194048 0 0 0 -0.7833949900395022 10.401721517877911 -1.405621997855826 -0.429309388030719 11.437279761371283 -0.42318169974929043 0 0 0 -8.579367283466233 -1.9506991443581567 -21.60045886710336 -15.347892988690678 2.003477981847042 -7.628210089222054 -14.166930999692886 -15.655317279368225 -37.947681958204 -5.130386950241341 -3.4568224840162083 36.7941913470239 0 0 0 0 0 0 0 0 0 0 0 0 0 0 0 0 0 0 0 0 0 0 0 0 0 0 0 0 0 0 0 0 0 0 0 0 0 0 0 0 0 0 0 0 0 -1.115292108732721 2.0045949740801 0.2820122948126046 -2.25042404336726 1.3160658602175366 0.5071602423901287 0 0 0 0 0 0 0 0 0 6.787695494375264 -2.421090179603477 14.11320161499716 19.61241350977295 18.105046043687235 51.444307352899514 32.22908277947549 -13.081410271624321 -33.27682215197121 -16.606976728380037 -2.4241910822946897 -21.572093007498662 0 0 0 0 0 0 0 0 0 0 0 0 0 0 0 0 0 0 0 0 0 0 0 0 0 0 0 0 0 0 0 0 0 0 0 0 0 0 0 0 0 0 0 0 0
0.1346301259557403 -7.500703248990766 1.0810913154122024 -90.00654599498014 2.220586984806785 -0.0001267320690083527 -179.44583840878693 -61.61212181427307 -159.1592010380574 167.85774209856785 68.76032634783299 171.7653596205585 0.25530501916841897 -1.1342027600713418 -0.8104356136644311 0 0 0 179.46441176436377 -61.61593624763072 159.12250839775388 -167.82687816842625 68.76509688554617 -171.7733817892182 -0.23499798682295112 -1.1337255138592144 0.8303476998038652 0 0 0 -0.7825053124938994 10.068349358004559 -1.4009533165757857 -0.4333174608151521 13.776814982900081 -0.44121027773288124 0 0 0 -9.073015185468073 -2.697052583482472 -21.028762781217107 -15.347891341033268 2.003477981847042 -7.628211782693237 -14.166933587132759 -15.655317279368225 -37.94767698040625 -6.447588048684514 -4.281593401572724 37.54812749450659 0 0 0 0 0 0 0 0 0 0 0 0 0 0 0 0 0 0 0 0 0 0 0 0 0 0 0 0 0 0 0 0 0 0 0 0 0 0 0 0 0 0 0 0 0 -1.3385566531508044 2.1030063113536994 0.335205961327781 -2.703142442347465 1.589398359573348 0.5893398781524319 0 0 0 0 0 0 0 0 0 7.741063586141579 -3.21762366095607 14.428270895231917 19.324112465618448 18.358345249726813 50.62720414459257 31.902904824837965 -13.28949492874855 -33.238369912788905 -15.887354338203792 -4.120195646478903 -21.954937533127147 0 0 0 0 0 0 0 0 0 0 0 0 0 0 0 0 0 0 0 0 0 0 0 0 0 0 0 0 0 0 0 0 0 0 0 0 0 0 0 0 0 0 0 0 0
0.1346301259557403 -7.449913769137889 1.0810913154122024 -90.00746197984587 2.664918082565398 -0.00017313162323913254 -179.44583840878693 -61.61212181427307 -159.1592010380574 167.69439019368733 69.13801672921836 171.5847322177888 0.3079546099159437 -1.3190179227463812 -0.9730729298220102 0 0 0 179.46440985621498 -61.61593624763072 159.12251175388815 -167.66250107703638 69.14199685151875 -171.59182856495542 -0.2895397207037627 -1.3191261672406178 0.9938515548799586 0 0 0 -0.7816449591595261 9.7349548339133 -1.3962946948040589 -0.43815145984299025 16.12424200412688 -0.4596678259575784 0 0 0 -9.574780677955403 -3.438914824457762 -20.44985095205666 -15.347892988690678 2.0034777682730742 -7.6282109359576475 -14.166930999692886 -15.655317279368225 -37.947681958204 -7.779443655200512 -5.090168129465568 38.32316538210163 0 0 0 0 0 0 0 0 0 0 0 0 0 0 0 0 0 0 0 0 0 0 0 0 0 0 0 0 0 0 0 0 0 0 0 0 0 0 0 0 0 0 0 0 0 -1.5618054651131412 2.201652195558728 0.3880330766400719 -3.156111322496363 1.8637205741197325 0.6694682135859364 0 0 0 0 0 0 0 0 0 8.691839745260152 -4.020096052362881 14.730592439700798 19.0314859802052 18.60780771264779 49.8072221415341 31.57626336191303 -13.497377174320489 -33.19865549946166 -15.152917683230555 -5.814860810429726 -22.361050758034633 0 0 0 0 0 0 0 0 0 0 0 0 0 0 0 0 0 0 0 0 0 0 0 0 0 0 0 0 0 0 0 0 0 0 0 0 0 0 0 0 0 0 0 0 0
